# xmcd
#
# Track frame offsets:
#	150
#	13937
#	30257
#	44045
#	56025
#	72102
#	86572
#	99550
#	112882
#	125497
#	139285
#	159677
#
# Disc length: 2302 seconds
#
# Revision: 1
# Processed by: cddbd v1.4PL0 Copyright (c) Steve Scherf et al.
# Submitted via: audiograbber 1.80.04
#
DISCID=a408fc0c
DTITLE=Pelimannet - Pelimannet
DYEAR=1993
DGENRE=
TTITLE0=Amore
TTITLE1=Yön Tumma Seitti
TTITLE2=Polte Veressä
TTITLE3=Tummat Tunteet
TTITLE4=Onnen Salaisuus
TTITLE5=Tämä Tunne Vie
TTITLE6=Nainen Ja Yö
TTITLE7=Kuningatar
TTITLE8=Kaalo Miritz
TTITLE9=Tuulen Viemää
TTITLE10=Joutsen
TTITLE11=Yön Siivin
EXTD=
EXTT0=
EXTT1=
EXTT2=
EXTT3=
EXTT4=
EXTT5=
EXTT6=
EXTT7=
EXTT8=
EXTT9=
EXTT10=
EXTT11=
PLAYORDER=
